<svg xmlns="http://www.w3.org/2000/svg" width="20" height="20" viewBox="0 0 20 20">
  <g id="Group_22883" data-name="Group 22883" transform="translate(-323 -681)">
    <path id="about-variant" d="M16.472,6a1.1,1.1,0,1,0,1.1,1.1,1.1,1.1,0,0,0-1.1-1.1m-.264,3.5c-.872.073-3.255,1.972-3.255,1.972-.147.11-.1.1.015.308s.1.213.242.117.389-.249.792-.5c1.554-1,.249,1.3-.418,5.183-.264,1.921,1.466.931,1.913.638s1.62-1.1,1.737-1.18c.161-.11.044-.2-.081-.381-.088-.125-.176-.037-.176-.037-.477.315-1.349.975-1.466.557-.139-.418.755-3.284,1.246-5.256.081-.469.3-1.5-.55-1.422Z" transform="translate(317.14 679)" fill="#3f3d56"/>
    <g id="Ellipse_901" data-name="Ellipse 901" transform="translate(323 681)" fill="none" stroke="#3f3d54" stroke-width="1">
      <circle cx="10" cy="10" r="10" stroke="none"/>
      <circle cx="10" cy="10" r="9.5" fill="none"/>
    </g>
  </g>
</svg>
