<svg xmlns="http://www.w3.org/2000/svg" width="11.242" height="11.244" viewBox="0 0 11.242 11.244">
  <path id="call" d="M11.265,13.494a4.729,4.729,0,0,1-2.209-.753,14.359,14.359,0,0,1-3.469-2.595,13.173,13.173,0,0,1-2.6-3.468C2.058,5,2.215,4.116,2.391,3.739a2.347,2.347,0,0,1,.92-.987A4.425,4.425,0,0,1,4.03,2.37L4.1,2.34a.671.671,0,0,1,.551-.05,1.613,1.613,0,0,1,.524.4A8.7,8.7,0,0,1,6.483,4.634a1.934,1.934,0,0,1,.257.8,1.259,1.259,0,0,1-.32.748c-.033.045-.066.088-.1.13-.191.251-.233.323-.205.453A4.76,4.76,0,0,0,7.277,8.481a4.566,4.566,0,0,0,1.7,1.131c.135.029.209-.015.468-.213l.115-.087a1.264,1.264,0,0,1,.76-.34h0a1.82,1.82,0,0,1,.8.281,9.58,9.58,0,0,1,1.936,1.3,1.619,1.619,0,0,1,.4.522.677.677,0,0,1-.05.552c-.009.021-.02.044-.03.069a4.429,4.429,0,0,1-.384.717,2.345,2.345,0,0,1-.988.918,1.692,1.692,0,0,1-.742.163Z" transform="translate(-2.257 -2.25)" fill="#5aa5ca"/>
</svg>
