<svg xmlns="http://www.w3.org/2000/svg" width="20.393" height="11.268" viewBox="0 0 20.393 11.268">
  <g id="distance" opacity="0.566">
    <path id="Path_165700" data-name="Path 165700" d="M79.129,195.674a.739.739,0,1,0,.739.739A.74.74,0,0,0,79.129,195.674Z" transform="translate(-75.268 -192.443)" fill="#fff"/>
    <path id="Path_165701" data-name="Path 165701" d="M7.783,118.44a3.892,3.892,0,1,0-7.783,0v.016a4.354,4.354,0,0,0,.6,2.209l2.917,4.954a.4.4,0,0,0,.688,0l2.959-4.947a4.354,4.354,0,0,0,.617-2.235Zm-3.922,2.086a2.008,2.008,0,1,1,2.008-2.008,2.01,2.01,0,0,1-2.008,2.008Z" transform="translate(0 -114.548)" fill="#fff"/>
    <ellipse id="Ellipse_900" data-name="Ellipse 900" cx="0.739" cy="0.739" rx="0.739" ry="0.739" transform="translate(15.732 3.231)" fill="#fff"/>
    <path id="Path_165702" data-name="Path 165702" d="M320.48,114.549a3.892,3.892,0,0,0-3.892,3.892v.016a4.354,4.354,0,0,0,.6,2.209l2.917,4.954a.4.4,0,0,0,.688,0l2.959-4.947a4.354,4.354,0,0,0,.617-2.235A3.892,3.892,0,0,0,320.48,114.549Zm-.031,5.978a2.008,2.008,0,1,1,2.008-2.008A2.01,2.01,0,0,1,320.449,120.527Z" transform="translate(-303.978 -114.549)" fill="#fff"/>
    <path id="Path_165703" data-name="Path 165703" d="M144.045,365.584h-1.31a.635.635,0,1,0,0,1.269h1.31a.635.635,0,1,0,0-1.269Z" transform="translate(-136.44 -355.585)" fill="#fff"/>
    <path id="Path_165704" data-name="Path 165704" d="M225.563,365.584h-1.31a.635.635,0,1,0,0,1.269h1.31a.635.635,0,1,0,0-1.269Z" transform="translate(-214.711 -355.585)" fill="#fff"/>
    <path id="Path_165705" data-name="Path 165705" d="M307.081,365.584h-1.31a.635.635,0,1,0,0,1.269h1.31a.635.635,0,1,0,0-1.269Z" transform="translate(-292.982 -355.585)" fill="#fff"/>
  </g>
</svg>
