<svg xmlns="http://www.w3.org/2000/svg" width="25.55" height="14.118" viewBox="0 0 25.55 14.118">
  <g id="distance" transform="translate(0 -114.548)">
    <path id="Path_165700" data-name="Path 165700" d="M79.316,195.674a.926.926,0,1,0,.926.926A.927.927,0,0,0,79.316,195.674Z" transform="translate(-74.478 -77.078)" fill="#3f3d56"/>
    <path id="Path_165701" data-name="Path 165701" d="M9.752,119.424a4.876,4.876,0,0,0-9.752,0v.02a5.455,5.455,0,0,0,.754,2.768l3.655,6.207a.5.5,0,0,0,.862,0l3.707-6.2a5.455,5.455,0,0,0,.773-2.8Zm-4.914,2.614a2.516,2.516,0,1,1,2.516-2.516,2.519,2.519,0,0,1-2.516,2.516Z" transform="translate(0 0)" fill="#3f3d56"/>
    <circle id="Ellipse_900" data-name="Ellipse 900" cx="0.926" cy="0.926" r="0.926" transform="translate(19.711 118.596)" fill="#3f3d56"/>
    <path id="Path_165702" data-name="Path 165702" d="M321.464,114.549a4.876,4.876,0,0,0-4.876,4.876v.02a5.455,5.455,0,0,0,.754,2.768L321,128.42a.5.5,0,0,0,.862,0l3.707-6.2a5.455,5.455,0,0,0,.773-2.8A4.876,4.876,0,0,0,321.464,114.549Zm-.038,7.49a2.516,2.516,0,1,1,2.516-2.516A2.519,2.519,0,0,1,321.426,122.039Z" transform="translate(-300.789 -0.001)" fill="#3f3d56"/>
    <path id="Path_165703" data-name="Path 165703" d="M144.537,365.584H142.9a.8.8,0,1,0,0,1.59h1.642a.8.8,0,1,0,0-1.59Z" transform="translate(-135.009 -238.509)" fill="#3f3d56"/>
    <path id="Path_165704" data-name="Path 165704" d="M226.055,365.584h-1.642a.8.8,0,1,0,0,1.59h1.642a.8.8,0,1,0,0-1.59Z" transform="translate(-212.459 -238.509)" fill="#3f3d56"/>
    <path id="Path_165705" data-name="Path 165705" d="M307.573,365.584h-1.642a.8.8,0,1,0,0,1.59h1.642a.8.8,0,1,0,0-1.59Z" transform="translate(-289.909 -238.509)" fill="#3f3d56"/>
  </g>
</svg>
