<svg xmlns="http://www.w3.org/2000/svg" width="88.438" height="88.438" viewBox="0 0 88.438 88.438">
  <g id="Group_1286" data-name="Group 1286" transform="translate(-146 -267)">
    <path id="Icon_awesome-check-circle" data-name="Icon awesome-check-circle" d="M89,44.781A44.219,44.219,0,1,1,44.781.563,44.219,44.219,0,0,1,89,44.781ZM39.666,68.195,72.474,35.387a2.853,2.853,0,0,0,0-4.034L68.44,27.318a2.853,2.853,0,0,0-4.035,0L37.649,54.074,25.158,41.582a2.853,2.853,0,0,0-4.035,0l-4.034,4.034a2.853,2.853,0,0,0,0,4.034L35.632,68.195A2.853,2.853,0,0,0,39.666,68.195Z" transform="translate(145.438 266.438)" fill="#f06030"/>
  </g>
</svg>
