<svg xmlns="http://www.w3.org/2000/svg" width="18.127" height="18.127" viewBox="0 0 18.127 18.127">
  <g id="Group_22888" data-name="Group 22888" transform="translate(-1.542 -0.831)">
    <path id="Path_165852" data-name="Path 165852" d="M13,18.958H8c-4.525,0-6.458-1.933-6.458-6.458v-5C1.541,2.975,3.475,1.042,8,1.042H9.667a.625.625,0,0,1,0,1.25H8c-3.842,0-5.208,1.367-5.208,5.208v5c0,3.842,1.367,5.208,5.208,5.208h5c3.842,0,5.208-1.367,5.208-5.208V10.833a.625.625,0,0,1,1.25,0V12.5C19.458,17.025,17.525,18.958,13,18.958Z" fill="#f06030"/>
    <path id="Path_165853" data-name="Path 165853" d="M7.583,14.742A1.785,1.785,0,0,1,5.775,12.6l.358-2.508a2.89,2.89,0,0,1,.725-1.45l6.567-6.567c1.658-1.658,3.342-1.658,5,0a3.48,3.48,0,0,1,1.233,2.758,3.707,3.707,0,0,1-1.233,2.233l-6.567,6.567a2.891,2.891,0,0,1-1.45.725L7.9,14.717A1.39,1.39,0,0,1,7.583,14.742ZM14.308,2.958,7.741,9.525a1.7,1.7,0,0,0-.375.742l-.358,2.508a.568.568,0,0,0,.708.708l2.508-.358a1.651,1.651,0,0,0,.742-.375l6.567-6.567A2.558,2.558,0,0,0,18.4,4.708a2.313,2.313,0,0,0-.867-1.758C16.2,1.617,15.283,1.992,14.308,2.958Z" fill="#f06030"/>
    <path id="Path_165854" data-name="Path 165854" d="M17.042,8.192a.538.538,0,0,1-.167-.025,6.614,6.614,0,0,1-4.55-4.55.633.633,0,0,1,.433-.775.62.62,0,0,1,.767.433,5.354,5.354,0,0,0,3.683,3.683.629.629,0,0,1,.433.775A.613.613,0,0,1,17.042,8.192Z" fill="#f06030"/>
  </g>
</svg>
