<svg xmlns="http://www.w3.org/2000/svg" width="14.571" height="16.999" viewBox="0 0 14.571 16.999">
  <g id="education" transform="translate(-4.5 -2.25)">
    <path id="Path_167156" data-name="Path 167156" d="M18.892,28.571H17.678V26.75a3.039,3.039,0,0,0-3.036-3.036H11A3.039,3.039,0,0,0,7.964,26.75v1.821H6.75V26.75A4.255,4.255,0,0,1,11,22.5h3.643a4.255,4.255,0,0,1,4.25,4.25Z" transform="translate(-1.036 -9.322)" fill="#5aa5ca"/>
    <path id="Path_167157" data-name="Path 167157" d="M5.107,6.75a.607.607,0,0,0-.607.607v5.464H5.714V7.357A.607.607,0,0,0,5.107,6.75Z" transform="translate(0 -2.072)" fill="#5aa5ca"/>
    <path id="Path_167158" data-name="Path 167158" d="M4.5,2.25V3.464H7.536v4.25a4.25,4.25,0,0,0,8.5,0V3.464h3.036V2.25ZM8.75,3.464h6.071V5.286H8.75Zm3.036,7.285A3.036,3.036,0,0,1,8.75,7.714V6.5h6.071V7.714A3.036,3.036,0,0,1,11.785,10.75Z" fill="#5aa5ca"/>
  </g>
</svg>
