<svg xmlns="http://www.w3.org/2000/svg" width="44" height="43" viewBox="0 0 44 43">
  <g id="Group_22881" data-name="Group 22881" transform="translate(-85 -203)">
    <rect id="Rectangle_3087" data-name="Rectangle 3087" width="44" height="43" rx="10" transform="translate(85 203)" fill="#e6ebee" opacity="0.435"/>
    <path id="exit" d="M20.154,11.11l-3.263,4a.794.794,0,0,1-.59.25,1.168,1.168,0,0,1-.641-.15.454.454,0,0,1-.27-.38V12.812H12.827a1.247,1.247,0,0,1-.9-.37,1.222,1.222,0,0,1-.38-.911V8.968a1.222,1.222,0,0,1,.38-.911,1.247,1.247,0,0,1,.9-.37h2.563v-2a.465.465,0,0,1,.27-.4,1.168,1.168,0,0,1,.641-.15.794.794,0,0,1,.59.25l3.263,3.983a1.233,1.233,0,0,1,0,1.742ZM12.837,5.125a1.3,1.3,0,0,1-1.291-1.291,1.225,1.225,0,0,0-.37-.9,1.241,1.241,0,0,0-.911-.37H3.859a1.247,1.247,0,0,0-.9.37,1.222,1.222,0,0,0-.38.911V16.656a1.231,1.231,0,0,0,.38.9,1.231,1.231,0,0,0,.9.38h6.406a1.222,1.222,0,0,0,.911-.38,1.259,1.259,0,0,0,.37-.911,1.209,1.209,0,0,1,.38-.9,1.262,1.262,0,0,1,.911-.37,1.222,1.222,0,0,1,.9.37,1.242,1.242,0,0,1,.37.911v1.281A2.563,2.563,0,0,1,11.545,20.5H2.577a2.47,2.47,0,0,1-1.812-.751,2.465,2.465,0,0,1-.75-1.813V2.563A2.47,2.47,0,0,1,.766.751,2.466,2.466,0,0,1,2.578,0h8.968a2.47,2.47,0,0,1,1.812.751,2.466,2.466,0,0,1,.751,1.812V3.844a1.247,1.247,0,0,1-.37.9,1.21,1.21,0,0,1-.9.38Z" transform="translate(96.235 214)" fill="#3f3d56"/>
  </g>
</svg>
