<svg xmlns="http://www.w3.org/2000/svg" width="17.075" height="17.075" viewBox="0 0 17.075 17.075">
  <g id="Group_22854" data-name="Group 22854" transform="translate(-320 -578.572)">
    <path id="chat" d="M14.941,13.874v3.2q-.117-.067-.333-.2a9.234,9.234,0,0,1-.9-.734,13.766,13.766,0,0,1-1.367-1.4,6.985,6.985,0,0,1-1.668.2,9.468,9.468,0,0,1-2.243-.25,6.626,6.626,0,0,1-1.676-.617,5.288,5.288,0,0,1-1.109-.817,3.267,3.267,0,0,1-.65-.834,1.572,1.572,0,0,1-.192-.683H6.4a9.273,9.273,0,0,0,3.827-.75,6.159,6.159,0,0,0,2.66-2.218,6.018,6.018,0,0,0,.984-3.435q3.2,1.617,3.2,4.536a4.859,4.859,0,0,1-2.134,4ZM13.874,5.336ZM6.4,10.672a6.985,6.985,0,0,1-1.668-.2A14.511,14.511,0,0,1,3.4,11.856a6.926,6.926,0,0,1-.967.767l-.3.184V9.6A4.858,4.858,0,0,1,0,5.6a4.976,4.976,0,0,1,.859-2.81A6.012,6.012,0,0,1,3.193.75,7,7,0,0,1,6.411,0,7,7,0,0,1,9.629.75a5.953,5.953,0,0,1,2.326,2.043,5,5,0,0,1,.85,2.81,4.391,4.391,0,0,1-.867,2.685,5.428,5.428,0,0,1-2.318,1.776A8.246,8.246,0,0,1,6.4,10.672Zm0-9.6a6.3,6.3,0,0,0-2.677.567A4.876,4.876,0,0,0,1.784,3.185a3.56,3.56,0,0,0,0,4.285A4.942,4.942,0,0,0,3.727,9.029,6.235,6.235,0,0,0,6.4,9.6,6.2,6.2,0,0,0,9.08,9.029,4.956,4.956,0,0,0,11.022,7.47a3.56,3.56,0,0,0,0-4.285A4.906,4.906,0,0,0,9.08,1.634,6.257,6.257,0,0,0,6.4,1.067Z" transform="translate(320 578.572)" fill="#3f3d56"/>
    <path id="Path_165724" data-name="Path 165724" d="M23.289,26.787a.789.789,0,1,0,.789.789A.79.79,0,0,0,23.289,26.787Z" transform="translate(300.266 556.21)" fill="#3f3d56"/>
    <path id="Path_165725" data-name="Path 165725" d="M30.575,26.787a.789.789,0,1,0,.789.789A.79.79,0,0,0,30.575,26.787Z" transform="translate(295.576 556.21)" fill="#3f3d56"/>
    <path id="Path_165726" data-name="Path 165726" d="M37.861,26.787a.789.789,0,1,0,.789.789A.79.79,0,0,0,37.861,26.787Z" transform="translate(290.887 556.21)" fill="#3f3d56"/>
  </g>
</svg>
