<svg xmlns="http://www.w3.org/2000/svg" width="37" height="37" viewBox="0 0 37 37">
  <g id="Group_22914" data-name="Group 22914" transform="translate(-325 -581)">
    <g id="Group_22847" data-name="Group 22847" transform="translate(-12.685 33)">
      <circle id="Ellipse_899" data-name="Ellipse 899" cx="18.5" cy="18.5" r="18.5" transform="translate(337.685 548)" fill="#fff"/>
      <g id="locations" transform="translate(342.055 552.233)">
        <path id="Path_165699" data-name="Path 165699" d="M15.52,11.35a.705.705,0,1,1,0,1.411h-.705a2.116,2.116,0,0,0,0,4.233h5.652a3.527,3.527,0,0,1,0,7.055H9.171a.705.705,0,1,1,0-1.411H20.464a2.116,2.116,0,0,0,0-4.233H14.814a3.527,3.527,0,0,1,0-7.055Zm3.962.909a.705.705,0,0,1-.869,0c-.039-.031-.108-.086-.2-.164-.152-.128-.321-.275-.5-.441a17.2,17.2,0,0,1-1.517-1.573A8.157,8.157,0,0,1,14.109,5a4.938,4.938,0,0,1,9.877,0A8.157,8.157,0,0,1,21.7,10.08a17.2,17.2,0,0,1-1.518,1.573c-.181.166-.35.313-.5.441C19.59,12.172,19.521,12.228,19.482,12.258Zm-.249-1.646a15.815,15.815,0,0,0,1.393-1.443A6.91,6.91,0,0,0,22.575,5,3.527,3.527,0,0,0,15.52,5a6.909,6.909,0,0,0,1.95,4.169,15.8,15.8,0,0,0,1.393,1.443l.185.167Zm-.185-3.5A2.116,2.116,0,1,1,21.164,5,2.116,2.116,0,0,1,19.048,7.117Zm0-1.411A.705.705,0,1,0,18.342,5,.705.705,0,0,0,19.048,5.706ZM5.373,23.9a.705.705,0,0,1-.869,0c-.039-.031-.108-.086-.2-.164-.152-.128-.321-.275-.5-.441a17.2,17.2,0,0,1-1.517-1.573A8.157,8.157,0,0,1,0,16.641a4.938,4.938,0,0,1,9.877,0,8.157,8.157,0,0,1-2.283,5.08,17.2,17.2,0,0,1-1.517,1.573c-.181.166-.35.313-.5.441C5.48,23.813,5.412,23.868,5.373,23.9Zm-.249-1.646A15.815,15.815,0,0,0,6.516,20.81a6.91,6.91,0,0,0,1.95-4.169,3.527,3.527,0,1,0-7.055,0,6.909,6.909,0,0,0,1.95,4.169,15.8,15.8,0,0,0,1.393,1.443l.185.167.185-.167Zm-.185-3.5a2.116,2.116,0,1,1,2.116-2.116,2.116,2.116,0,0,1-2.116,2.116Zm0-1.411a.705.705,0,1,0-.705-.705A.705.705,0,0,0,4.938,17.346Z" transform="translate(0 -0.062)" fill="#3f3d56"/>
      </g>
    </g>
  </g>
</svg>
