<svg xmlns="http://www.w3.org/2000/svg" width="26.469" height="18.529" viewBox="0 0 26.469 18.529">
  <g id="menu-left" transform="translate(-3 -7.5)">
    <path id="Path_3195" data-name="Path 3195" d="M3,8.816A1.316,1.316,0,0,1,4.316,7.5h10.6a1.317,1.317,0,0,1,0,2.634H4.316A1.316,1.316,0,0,1,3,8.816Z" transform="translate(0 0)" fill="#ebebeb"/>
    <path id="Path_3196" data-name="Path 3196" d="M3,17.824a1.316,1.316,0,0,1,1.316-1.316H28.152a1.317,1.317,0,0,1,0,2.634H4.316A1.316,1.316,0,0,1,3,17.824Z" transform="translate(0 -1.06)" fill="#ebebeb"/>
    <path id="Path_3197" data-name="Path 3197" d="M4.316,25.515a1.317,1.317,0,1,0,0,2.634H20.211a1.317,1.317,0,0,0,0-2.634Z" transform="translate(0 -2.12)" fill="#ebebeb"/>
  </g>
</svg>
