<svg xmlns="http://www.w3.org/2000/svg" width="23.2" height="23.2" viewBox="0 0 23.2 23.2">
  <g id="Group_22913" data-name="Group 22913" transform="translate(-103.954 -710.471)">
    <path id="chat" d="M20.3,18.85V23.2q-.159-.091-.453-.272a12.546,12.546,0,0,1-1.223-1,18.7,18.7,0,0,1-1.858-1.9A9.49,9.49,0,0,1,14.5,20.3a12.865,12.865,0,0,1-3.048-.34,9,9,0,0,1-2.277-.838,7.185,7.185,0,0,1-1.507-1.11,4.438,4.438,0,0,1-.884-1.133,2.136,2.136,0,0,1-.26-.929H8.7a12.6,12.6,0,0,0,5.2-1.02,8.368,8.368,0,0,0,3.614-3.013A8.177,8.177,0,0,0,18.85,7.25q4.35,2.2,4.35,6.163a6.6,6.6,0,0,1-2.9,5.438ZM18.85,7.25ZM8.7,14.5a9.49,9.49,0,0,1-2.266-.272,19.716,19.716,0,0,1-1.813,1.881,9.41,9.41,0,0,1-1.314,1.042L2.9,17.4V13.05A6.6,6.6,0,0,1,0,7.613,6.761,6.761,0,0,1,1.167,3.8,8.168,8.168,0,0,1,4.338,1.02,9.5,9.5,0,0,1,8.711,0a9.5,9.5,0,0,1,4.373,1.02A8.089,8.089,0,0,1,16.245,3.8,6.8,6.8,0,0,1,17.4,7.613a5.966,5.966,0,0,1-1.178,3.648,7.375,7.375,0,0,1-3.149,2.413A11.2,11.2,0,0,1,8.7,14.5Zm0-13.05a8.558,8.558,0,0,0-3.637.77A6.624,6.624,0,0,0,2.424,4.327a4.836,4.836,0,0,0,0,5.823,6.714,6.714,0,0,0,2.64,2.118A8.471,8.471,0,0,0,8.7,13.05a8.425,8.425,0,0,0,3.637-.782,6.733,6.733,0,0,0,2.639-2.118,4.836,4.836,0,0,0,0-5.823A6.666,6.666,0,0,0,12.337,2.22,8.5,8.5,0,0,0,8.7,1.45Z" transform="translate(103.954 710.471)" fill="#ebebeb"/>
  </g>
</svg>
