<svg xmlns="http://www.w3.org/2000/svg" width="21.841" height="23.4" viewBox="0 0 21.841 23.4">
  <g id="notification-outline-badged" transform="translate(-3.05)">
    <path id="Path_3192" data-name="Path 3192" d="M17.124,33.535A1.8,1.8,0,0,0,18.86,32H15.32A1.8,1.8,0,0,0,17.124,33.535Z" transform="translate(-4.011 -10.135)" fill="#fff"/>
    <path id="Path_3193" data-name="Path 3193" d="M22.879,19.312a9.693,9.693,0,0,1-1.689-1.972,8.5,8.5,0,0,1-.909-3.238V10.777a7.349,7.349,0,0,0-.108-1.2,5.008,5.008,0,0,1-1.508-.565,5.984,5.984,0,0,1,.269,1.777v3.325a9.585,9.585,0,0,0,1.111,3.938,10.884,10.884,0,0,0,1.642,2.019H4.45a10.884,10.884,0,0,0,1.642-2.019A9.585,9.585,0,0,0,7.2,14.109V10.777a5.923,5.923,0,0,1,5.91-5.95,5.8,5.8,0,0,1,3.2.969,5.041,5.041,0,0,1-.175-1.178V4.195a7.121,7.121,0,0,0-2.235-.673V2.674a.9.9,0,1,0-1.8,0v.882a7.276,7.276,0,0,0-6.26,7.222V14.1a8.5,8.5,0,0,1-.909,3.238,9.692,9.692,0,0,1-1.663,1.972.673.673,0,0,0-.229.5v.915a.673.673,0,0,0,.673.673H22.435a.673.673,0,0,0,.673-.673v-.915A.673.673,0,0,0,22.879,19.312Z" transform="translate(0 -0.253)" fill="#fff"/>
    <path id="Path_3194" data-name="Path 3194" d="M35.337,6.168A5.168,5.168,0,1,1,30.168,1a5.168,5.168,0,0,1,5.168,5.168Z" transform="translate(-10.445 -1)" fill="#fff"/>
    <text id="_22" data-name="22" transform="translate(19.555 7)" fill="#f06030" font-size="6" font-family="SegoeUI-Bold, Segoe UI" font-weight="700"><tspan x="-3.451" y="0">22</tspan></text>
  </g>
</svg>
