<svg xmlns="http://www.w3.org/2000/svg" width="12.919" height="14.092" viewBox="0 0 12.919 14.092">
  <g id="notification-line" transform="translate(-3.05 -1.775)">
    <path id="Path_165709" data-name="Path 165709" d="M15.822,13.071a6.243,6.243,0,0,1-1.088-1.27,5.476,5.476,0,0,1-.585-2.085V7.573a4.686,4.686,0,0,0-4.093-4.66V2.354a.579.579,0,1,0-1.158,0v.568A4.686,4.686,0,0,0,4.853,7.573V9.715A5.476,5.476,0,0,1,4.268,11.8,6.243,6.243,0,0,1,3.2,13.071a.434.434,0,0,0-.147.325v.59a.434.434,0,0,0,.434.434H15.536a.434.434,0,0,0,.434-.434V13.4A.434.434,0,0,0,15.822,13.071Zm-11.87.481a7.01,7.01,0,0,0,1.058-1.3,6.173,6.173,0,0,0,.715-2.536V7.573a3.789,3.789,0,1,1,7.574,0V9.715a6.173,6.173,0,0,0,.715,2.536,7.01,7.01,0,0,0,1.058,1.3Z" transform="translate(0 0)" fill="#3f3d56"/>
    <path id="Path_165710" data-name="Path 165710" d="M16.482,32.988A1.158,1.158,0,0,0,17.6,32H15.32a1.158,1.158,0,0,0,1.162.988Z" transform="translate(-6.951 -17.122)" fill="#3f3d56"/>
  </g>
</svg>
