<svg xmlns="http://www.w3.org/2000/svg" width="17.459" height="17.435" viewBox="0 0 17.459 17.435">
  <g id="password" transform="translate(-2.25 -2.25)">
    <path id="Path_841" data-name="Path 841" d="M14.081,2.25a5.6,5.6,0,0,0-5.6,5.6A5.523,5.523,0,0,0,8.72,9.479l-6.47,6.47v3.736H5.986l6.47-6.47a5.6,5.6,0,0,0,7.229-4.9,5.461,5.461,0,0,0-1.027-3.736A5.6,5.6,0,0,0,14.081,2.25Zm0,9.963a4.359,4.359,0,0,1-1.245-.187l-.716-.218-.529.529-1.98,1.98-.878-.86-.878.878.859.859-.99.99-.859-.859-.878.878.859.859L5.469,18.439H3.5V16.466l6.1-6.121.529-.529-.18-.592a4.446,4.446,0,0,1,2.117-5.255A4.359,4.359,0,0,1,18.439,7.7a4.166,4.166,0,0,1-.679,2.491A4.359,4.359,0,0,1,14.081,12.213Z" transform="translate(0 0)" fill="#282828"/>
    <path id="Path_842" data-name="Path 842" d="M24.991,10.245A1.245,1.245,0,1,1,23.745,9,1.245,1.245,0,0,1,24.991,10.245Z" transform="translate(-9.042 -3.014)" fill="#282828"/>
  </g>
</svg>
