<svg xmlns="http://www.w3.org/2000/svg" width="12.331" height="12.331" viewBox="0 0 12.331 12.331">
  <path id="phone" d="M9.65,8.138,8.271,9.506a1,1,0,0,1-.736.28A6.381,6.381,0,0,1,4.37,8.594,12.2,12.2,0,0,1,.677,4.566,5.212,5.212,0,0,1,0,2.269a1,1,0,0,1,.28-.746L1.662.143a.456.456,0,0,1,.747.125l1.11,2.1a.611.611,0,0,1-.125.695l-.508.508a.251.251,0,0,0-.052.145A4.334,4.334,0,0,0,4.142,5.65,4.335,4.335,0,0,0,5.952,6.93.287.287,0,0,0,6.216,6.9l.591-.6a.675.675,0,0,1,.716-.1h.01l2,1.182a.482.482,0,0,1,.114.757Z" transform="translate(9.307 12.332) rotate(-162)" fill="#f06030"/>
</svg>
