<svg xmlns="http://www.w3.org/2000/svg" width="44" height="43" viewBox="0 0 44 43">
  <g id="Group_22882" data-name="Group 22882" transform="translate(-251 -206)">
    <rect id="Rectangle_3086" data-name="Rectangle 3086" width="44" height="43" rx="10" transform="translate(251 206)" fill="#e6ebee" opacity="0.435"/>
    <g id="profile" transform="translate(260.653 214.775)">
      <path id="Path_165707" data-name="Path 165707" d="M21.152,12.076A4.576,4.576,0,1,1,16.576,7.5a4.576,4.576,0,0,1,4.576,4.576Zm-2.288,0a2.288,2.288,0,1,1-2.288-2.288,2.288,2.288,0,0,1,2.288,2.288Z" transform="translate(-3.992 -2.924)" fill="#3f3d56" fill-rule="evenodd"/>
      <path id="Path_165708" data-name="Path 165708" d="M14.084,1.5A12.584,12.584,0,1,0,26.667,14.084,12.583,12.583,0,0,0,14.084,1.5ZM3.788,14.084a10.254,10.254,0,0,0,2.183,6.34,10.3,10.3,0,0,1,16.3-.1A10.3,10.3,0,1,0,3.788,14.084Zm10.3,10.3a10.253,10.253,0,0,1-6.489-2.3A8.01,8.01,0,0,1,20.667,22,10.254,10.254,0,0,1,14.084,24.379Z" transform="translate(-1.5 -1.5)" fill="#3f3d56" fill-rule="evenodd"/>
    </g>
  </g>
</svg>
