<svg xmlns="http://www.w3.org/2000/svg" width="16" height="16" viewBox="0 0 16 16">
  <g id="settings-line" transform="translate(-2 -2)">
    <path id="Path_165720" data-name="Path 165720" d="M14.6,11a3.5,3.5,0,1,0,3.5,3.5A3.478,3.478,0,0,0,14.6,11Zm0,6a2.5,2.5,0,1,1,2.5-2.5A2.476,2.476,0,0,1,14.6,17Z" transform="translate(-4.55 -4.5)" fill="#3f3d56"/>
    <path id="Path_165721" data-name="Path 165721" d="M17.4,8.35,16,7.9l-.3-.75.7-1.3a.841.841,0,0,0-.15-.95l-1.2-1.2a.841.841,0,0,0-.95-.15l-1.3.7-.75-.3-.45-1.4A.813.813,0,0,0,10.85,2H9.15a.7.7,0,0,0-.7.6L8,4a2.209,2.209,0,0,0-.8.3L5.9,3.6a.841.841,0,0,0-.95.15l-1.2,1.2a.841.841,0,0,0-.15.95l.65,1.25c-.1.25-.2.55-.3.8l-1.4.45A.813.813,0,0,0,2,9.15v1.7a.8.8,0,0,0,.6.75l1.4.45.3.75-.7,1.3a.841.841,0,0,0,.15.95l1.2,1.2a.841.841,0,0,0,.95.15l1.3-.7.75.3.45,1.45a.813.813,0,0,0,.75.55h1.7a.813.813,0,0,0,.75-.55L12.05,16l.75-.3,1.3.7a.841.841,0,0,0,.95-.15l1.2-1.2a.841.841,0,0,0,.15-.95l-.7-1.3.3-.75,1.45-.45a.813.813,0,0,0,.55-.75V9.15a.856.856,0,0,0-.6-.8ZM17,10.7l-1.8.55-.05.25-.45,1.05-.15.25.9,1.65-1,1-1.65-.9-.25.15a4.747,4.747,0,0,1-1.05.45l-.25.05L10.7,17H9.3l-.55-1.8-.25-.05L7.45,14.7l-.25-.15-1.65.9-1-1,.9-1.65-.15-.25a4.747,4.747,0,0,1-.45-1.05l-.05-.25L3,10.7V9.3l1.7-.5.1-.25a4.244,4.244,0,0,1,.45-1.1L5.4,7.2,4.55,5.55l1-1,1.6.9L7.4,5.3a4.244,4.244,0,0,1,1.1-.45l.25-.1L9.3,3h1.4l.55,1.75.25.1a4.747,4.747,0,0,1,1.05.45l.25.15,1.65-.9,1,1-.9,1.65.15.25a4.747,4.747,0,0,1,.45,1.05l.05.25L17,9.3Z" fill="#3f3d56"/>
  </g>
</svg>
