<svg xmlns="http://www.w3.org/2000/svg" width="13.356" height="12.813" viewBox="0 0 13.356 12.813">
  <path id="star" d="M14.426,6.623a1.128,1.128,0,0,0-.9-.768l-3.225-.524L8.81,2.425a1.133,1.133,0,0,0-2.014,0L5.3,5.331l-3.225.524A1.133,1.133,0,0,0,1.454,7.77l2.3,2.32-.5,3.229A1.132,1.132,0,0,0,4.886,14.5L7.8,13.031,10.721,14.5a1.132,1.132,0,0,0,1.629-1.184l-.5-3.229,2.3-2.32a1.128,1.128,0,0,0,.273-1.147Zm-.905.52L10.9,9.782l.567,3.673a.241.241,0,0,1-.348.253L7.8,12.033,4.485,13.708a.241.241,0,0,1-.348-.253L4.7,9.782,2.086,7.143a.242.242,0,0,1,.133-.409l3.669-.6,1.7-3.3a.242.242,0,0,1,.43,0l1.7,3.3,3.669.6a.242.242,0,0,1,.133.409Z" transform="translate(-1.126 -1.811)" fill="#3f3d56"/>
</svg>
