<svg xmlns="http://www.w3.org/2000/svg" width="24.499" height="21" viewBox="0 0 24.499 21">
  <path id="time-restore" d="M14,0a10.126,10.126,0,0,1,7.438,3.062A10.126,10.126,0,0,1,24.5,10.5a10.126,10.126,0,0,1-3.062,7.438A10.126,10.126,0,0,1,14,21a10.245,10.245,0,0,1-7.438-3.062l1.7-1.7A7.722,7.722,0,0,0,14,18.649a7.855,7.855,0,0,0,5.77-2.379,7.86,7.86,0,0,0,2.379-5.77,7.853,7.853,0,0,0-2.379-5.77A7.858,7.858,0,0,0,14,2.351,7.856,7.856,0,0,0,8.23,4.73,7.857,7.857,0,0,0,5.851,10.5h3.5L4.594,15.2l-.054-.164L0,10.5H3.5A10.126,10.126,0,0,1,6.562,3.062,10.125,10.125,0,0,1,14,0ZM12.851,5.851H14.6v4.922l4.046,2.461-.82,1.422L12.85,11.647v-5.8Z" fill="#e7e7e7"/>
</svg>
