<svg xmlns="http://www.w3.org/2000/svg" width="16.206" height="22.688" viewBox="0 0 30 40">
  <g id="Group_22911" data-name="Group 22911" transform="translate(-306.75 -388.312)">
    <g id="user" transform="translate(300 386.062)">
      <path id="Path_839" data-name="Path 839" d="M15.8,3.871a4.051,4.051,0,1,1-4.051,4.051A4.051,4.051,0,0,1,15.8,3.871m0-1.621a5.672,5.672,0,1,0,5.672,5.672A5.672,5.672,0,0,0,15.8,2.25Z" transform="translate(-0.944 0)" fill="#282828"/>
      <path id="Path_840" data-name="Path 840" d="M22.956,29.973H21.335V25.922a4.051,4.051,0,0,0-4.051-4.051H12.422a4.051,4.051,0,0,0-4.051,4.051v4.051H6.75V25.922a5.672,5.672,0,0,1,5.672-5.672h4.862a5.672,5.672,0,0,1,5.672,5.672Z" transform="translate(0 -5.036)" fill="#282828"/>
    </g>
  </g>
</svg>
