<svg xmlns="http://www.w3.org/2000/svg" width="18.678" height="22.137" viewBox="0 0 18.678 22.137">
  <g id="verified" transform="translate(-40 0)">
    <path id="Path_165719" data-name="Path 165719" d="M58.145,3.585,49.671.066a.865.865,0,0,0-.663,0L40.533,3.585a.865.865,0,0,0-.533.8V8.66a14.481,14.481,0,0,0,9.012,13.413.865.865,0,0,0,.654,0A14.481,14.481,0,0,0,58.678,8.66V4.383A.865.865,0,0,0,58.145,3.585Zm-1.2,5.076a12.755,12.755,0,0,1-7.61,11.673A12.755,12.755,0,0,1,41.729,8.66v-3.7L49.339,1.8l7.61,3.159Zm-8.565,2.915L52.1,7.859a.865.865,0,1,1,1.223,1.223L48.995,13.41a.865.865,0,0,1-1.223,0l-2.417-2.417A.865.865,0,1,1,46.578,9.77Z" transform="translate(0 0)" fill="#3f3d56"/>
  </g>
</svg>
