<svg xmlns="http://www.w3.org/2000/svg" width="24" height="24" viewBox="0 0 24 24">
  <g id="Layer_2" data-name="Layer 2" transform="translate(0 0.112)">
    <g id="_09.whatsapp" data-name="09.whatsapp" transform="translate(0 -0.112)">
      <circle id="background" cx="12" cy="12" r="12" fill="#29a71a"/>
      <g id="icon" transform="translate(4.521 4.537)">
        <path id="Path_165722" data-name="Path 165722" d="M46.067,35.211a7.377,7.377,0,0,0-11.817,8.534l-.783,3.8a.281.281,0,0,0,.045.22.285.285,0,0,0,.3.118L37.538,47a7.375,7.375,0,0,0,8.528-11.789Zm-1.161,9.268a5.778,5.778,0,0,1-6.654,1.081l-.519-.257-2.283.541.007-.028.473-2.3-.254-.5a5.775,5.775,0,0,1,9.23-6.7.308.308,0,0,0,.03.03A5.775,5.775,0,0,1,44.905,44.479Z" transform="translate(-33.447 -33.024)" fill="#fff"/>
        <path id="Path_165723" data-name="Path 165723" d="M68.11,67.211a2.4,2.4,0,0,1-1.277,1.114c-.973.235-2.467.008-4.326-1.725l-.023-.02c-1.634-1.515-2.059-2.777-1.956-3.777a2.391,2.391,0,0,1,.929-1.417.531.531,0,0,1,.831.191l.6,1.352a.529.529,0,0,1-.066.541l-.3.395a.523.523,0,0,0-.047.584A5.683,5.683,0,0,0,63.5,65.593a6.02,6.02,0,0,0,1.429,1.023A.516.516,0,0,0,65.5,66.5l.353-.356a.541.541,0,0,1,.527-.135l1.429.406a.541.541,0,0,1,.3.8Z" transform="translate(-56.854 -57.442)" fill="#fff"/>
      </g>
    </g>
  </g>
</svg>
